<mxfile host="www.draw.io" modified="2019-12-20T09:15:57.743Z" agent="Mozilla/5.0 (Macintosh; Intel Mac OS X 10_14_6) AppleWebKit/537.36 (KHTML, like Gecko) Chrome/78.0.3904.108 Safari/537.36" etag="e2d1hwdrMqYG_FdRG9a2" version="12.4.3" type="github" pages="1">
  <diagram id="Wt3J7NYyZq6BP8QyCItN" name="Page-1">
    <mxGraphModel dx="946" dy="536" grid="1" gridSize="10" guides="1" tooltips="1" connect="1" arrows="1" fold="1" page="1" pageScale="1" pageWidth="827" pageHeight="1169" math="0" shadow="0">
      <root>
        <mxCell id="0"/>
        <mxCell id="1" parent="0"/>
        <mxCell id="slxPLqcGu1tg5bBsfPHJ-3" value="" style="edgeStyle=orthogonalEdgeStyle;rounded=0;orthogonalLoop=1;jettySize=auto;html=1;" parent="1" source="slxPLqcGu1tg5bBsfPHJ-1" target="slxPLqcGu1tg5bBsfPHJ-2" edge="1">
          <mxGeometry relative="1" as="geometry"/>
        </mxCell>
        <mxCell id="slxPLqcGu1tg5bBsfPHJ-1" value="ReactDom.render(App, document.getElementById(&quot;root&quot;))" style="rounded=1;whiteSpace=wrap;html=1;" parent="1" vertex="1">
          <mxGeometry x="20" y="20" width="240" height="60" as="geometry"/>
        </mxCell>
        <mxCell id="slxPLqcGu1tg5bBsfPHJ-5" value="" style="edgeStyle=orthogonalEdgeStyle;rounded=0;orthogonalLoop=1;jettySize=auto;html=1;" parent="1" source="slxPLqcGu1tg5bBsfPHJ-2" target="slxPLqcGu1tg5bBsfPHJ-4" edge="1">
          <mxGeometry relative="1" as="geometry">
            <Array as="points">
              <mxPoint x="460" y="125"/>
              <mxPoint x="350" y="125"/>
            </Array>
          </mxGeometry>
        </mxCell>
        <mxCell id="slxPLqcGu1tg5bBsfPHJ-7" value="" style="edgeStyle=orthogonalEdgeStyle;rounded=0;orthogonalLoop=1;jettySize=auto;html=1;" parent="1" source="slxPLqcGu1tg5bBsfPHJ-2" target="slxPLqcGu1tg5bBsfPHJ-6" edge="1">
          <mxGeometry relative="1" as="geometry"/>
        </mxCell>
        <mxCell id="slxPLqcGu1tg5bBsfPHJ-2" value="render(element, container, callback),&lt;br&gt;hydrate(element, container, callback)," style="rounded=1;whiteSpace=wrap;html=1;" parent="1" vertex="1">
          <mxGeometry x="340" y="20" width="240" height="60" as="geometry"/>
        </mxCell>
        <mxCell id="slxPLqcGu1tg5bBsfPHJ-14" value="" style="edgeStyle=orthogonalEdgeStyle;rounded=0;orthogonalLoop=1;jettySize=auto;html=1;exitX=0.592;exitY=0.983;exitDx=0;exitDy=0;exitPerimeter=0;entryX=0.5;entryY=0;entryDx=0;entryDy=0;" parent="1" source="slxPLqcGu1tg5bBsfPHJ-6" target="slxPLqcGu1tg5bBsfPHJ-11" edge="1">
          <mxGeometry relative="1" as="geometry">
            <mxPoint x="470" y="330" as="targetPoint"/>
          </mxGeometry>
        </mxCell>
        <mxCell id="slxPLqcGu1tg5bBsfPHJ-6" value="&lt;span style=&quot;white-space: normal&quot;&gt;legacyRenderSubtreeIntoContainer(null, element, container, false, callback)&lt;/span&gt;" style="rounded=1;whiteSpace=wrap;html=1;" parent="1" vertex="1">
          <mxGeometry x="480" y="170" width="240" height="60" as="geometry"/>
        </mxCell>
        <mxCell id="slxPLqcGu1tg5bBsfPHJ-12" value="" style="edgeStyle=orthogonalEdgeStyle;rounded=0;orthogonalLoop=1;jettySize=auto;html=1;" parent="1" source="slxPLqcGu1tg5bBsfPHJ-4" target="slxPLqcGu1tg5bBsfPHJ-11" edge="1">
          <mxGeometry relative="1" as="geometry"/>
        </mxCell>
        <mxCell id="slxPLqcGu1tg5bBsfPHJ-4" value="legacyRenderSubtreeIntoContainer(null, element, container, true, callback)" style="rounded=1;whiteSpace=wrap;html=1;" parent="1" vertex="1">
          <mxGeometry x="210" y="170" width="240" height="60" as="geometry"/>
        </mxCell>
        <mxCell id="slxPLqcGu1tg5bBsfPHJ-18" value="" style="edgeStyle=orthogonalEdgeStyle;rounded=0;orthogonalLoop=1;jettySize=auto;html=1;" parent="1" source="slxPLqcGu1tg5bBsfPHJ-11" target="slxPLqcGu1tg5bBsfPHJ-17" edge="1">
          <mxGeometry relative="1" as="geometry">
            <Array as="points">
              <mxPoint x="485" y="500"/>
              <mxPoint x="485" y="500"/>
            </Array>
          </mxGeometry>
        </mxCell>
        <mxCell id="slxPLqcGu1tg5bBsfPHJ-11" value="1、root = legacyCreateRootFromDOMContainer(container, forceHydrate)&lt;br&gt;root:{&lt;br&gt;&amp;nbsp; &amp;nbsp;&lt;span style=&quot;text-align: center&quot;&gt;_internalRoot: fiberRoot&lt;br&gt;}&lt;/span&gt;&lt;br&gt;2、container._reactRootContainer=root;&lt;br&gt;3、root.render(element:children, callback);" style="rounded=1;whiteSpace=wrap;html=1;align=left;" parent="1" vertex="1">
          <mxGeometry x="290" y="340" width="370" height="110" as="geometry"/>
        </mxCell>
        <mxCell id="slxPLqcGu1tg5bBsfPHJ-20" value="" style="edgeStyle=orthogonalEdgeStyle;rounded=0;orthogonalLoop=1;jettySize=auto;html=1;" parent="1" edge="1">
          <mxGeometry relative="1" as="geometry">
            <mxPoint x="484" y="590" as="sourcePoint"/>
            <mxPoint x="484" y="670" as="targetPoint"/>
          </mxGeometry>
        </mxCell>
        <mxCell id="slxPLqcGu1tg5bBsfPHJ-17" value="return new ReactRoot(container, isConcurrent, shouldHydrate)" style="rounded=1;whiteSpace=wrap;html=1;" parent="1" vertex="1">
          <mxGeometry x="310" y="530" width="350" height="60" as="geometry"/>
        </mxCell>
        <mxCell id="slxPLqcGu1tg5bBsfPHJ-22" value="" style="edgeStyle=orthogonalEdgeStyle;rounded=0;orthogonalLoop=1;jettySize=auto;html=1;" parent="1" edge="1">
          <mxGeometry relative="1" as="geometry">
            <mxPoint x="485" y="730" as="sourcePoint"/>
            <mxPoint x="485" y="810" as="targetPoint"/>
          </mxGeometry>
        </mxCell>
        <mxCell id="slxPLqcGu1tg5bBsfPHJ-19" value="{&lt;br&gt;_internalRoot: DOMRender.createContainer(container, isConcurrent, hydrate)&lt;br&gt;}" style="rounded=1;whiteSpace=wrap;html=1;" parent="1" vertex="1">
          <mxGeometry x="310" y="670" width="350" height="60" as="geometry"/>
        </mxCell>
        <mxCell id="xOmj7P0pZRFATEH8uKoa-2" value="" style="edgeStyle=orthogonalEdgeStyle;rounded=0;orthogonalLoop=1;jettySize=auto;html=1;" edge="1" parent="1" source="slxPLqcGu1tg5bBsfPHJ-21" target="xOmj7P0pZRFATEH8uKoa-1">
          <mxGeometry relative="1" as="geometry"/>
        </mxCell>
        <mxCell id="slxPLqcGu1tg5bBsfPHJ-21" value="createFiberRoot(container, isConcurrnet, hydrate)" style="rounded=1;whiteSpace=wrap;html=1;" parent="1" vertex="1">
          <mxGeometry x="310" y="810" width="350" height="60" as="geometry"/>
        </mxCell>
        <mxCell id="xOmj7P0pZRFATEH8uKoa-4" value="" style="edgeStyle=orthogonalEdgeStyle;rounded=0;orthogonalLoop=1;jettySize=auto;html=1;" edge="1" parent="1" source="xOmj7P0pZRFATEH8uKoa-1" target="xOmj7P0pZRFATEH8uKoa-3">
          <mxGeometry relative="1" as="geometry"/>
        </mxCell>
        <mxCell id="xOmj7P0pZRFATEH8uKoa-1" value="render 里的container（document.getElementById(&quot;app&quot;)）最终转化成了一个fiberroot对象&lt;br&gt;{&lt;br&gt;_internalRoot: fiberRootObj}&lt;br&gt;然后调用updateekContainer时，第一个参数还是APP第二个就是一个fiber对象了" style="rounded=1;whiteSpace=wrap;html=1;" vertex="1" parent="1">
          <mxGeometry x="310" y="950" width="350" height="140" as="geometry"/>
        </mxCell>
        <mxCell id="xOmj7P0pZRFATEH8uKoa-3" value="react-render&lt;br&gt;1、根据container创建一个fiberroot，&lt;br&gt;2、根据react-node 和fiberroot创建一个updater，放入队列去" style="rounded=1;whiteSpace=wrap;html=1;" vertex="1" parent="1">
          <mxGeometry x="310" y="1170" width="350" height="140" as="geometry"/>
        </mxCell>
        <mxCell id="slxPLqcGu1tg5bBsfPHJ-9" value="render" style="shape=callout;whiteSpace=wrap;html=1;perimeter=calloutPerimeter;" parent="1" vertex="1">
          <mxGeometry x="210" y="110" width="100" height="60" as="geometry"/>
        </mxCell>
        <mxCell id="slxPLqcGu1tg5bBsfPHJ-10" value="hydrate" style="shape=callout;whiteSpace=wrap;html=1;perimeter=calloutPerimeter;" parent="1" vertex="1">
          <mxGeometry x="610" y="110" width="90" height="60" as="geometry"/>
        </mxCell>
        <mxCell id="slxPLqcGu1tg5bBsfPHJ-23" value="isConcurrent=false" style="shape=callout;whiteSpace=wrap;html=1;perimeter=calloutPerimeter;" parent="1" vertex="1">
          <mxGeometry x="510" y="470" width="120" height="60" as="geometry"/>
        </mxCell>
        <mxCell id="slxPLqcGu1tg5bBsfPHJ-26" value="return fiberRoot" style="shape=callout;whiteSpace=wrap;html=1;perimeter=calloutPerimeter;" parent="1" vertex="1">
          <mxGeometry x="510" y="750" width="120" height="60" as="geometry"/>
        </mxCell>
      </root>
    </mxGraphModel>
  </diagram>
</mxfile>
